<svg width="156" height="155" viewBox="0 0 156 155" fill="none" xmlns="http://www.w3.org/2000/svg">
<g clip-path="url(#clip0_15_121)">
<path fill-rule="evenodd" clip-rule="evenodd" d="M45.6094 25.7917C27.4923 25.7917 14.3333 41.3113 14.3333 60.9663C14.3333 63.9671 14.7636 67.1414 15.6385 70.5015C16.2984 71.7918 17.5799 72.5228 18.7615 72.1847C19.8447 71.8747 20.5238 70.7579 20.535 69.4615C19.714 66.3759 19.3333 63.5524 19.3333 60.9663C19.3333 43.4479 30.8396 30.7917 45.6094 30.7917C54.7986 30.7917 61.1251 34.1888 65.1717 38.193C69.3111 42.2891 70.9863 46.9228 71.0398 49.2716C71.0398 49.4218 71.0396 49.5702 71.0395 49.7166V49.7209V49.7252C71.0385 50.6503 71.0375 51.4942 71.0727 52.1934C71.112 52.9746 71.204 53.9152 71.5781 54.764C72.0315 55.7927 72.8201 56.5266 73.8647 56.9165C74.7309 57.2398 75.6821 57.2884 76.4996 57.2884C77.3993 57.2884 78.3802 57.1996 79.282 56.813C80.2967 56.378 81.0414 55.6409 81.5028 54.684C81.9109 53.8376 82.0523 52.9101 82.1194 52.0959C82.1883 51.2598 82.1943 50.2849 82.1943 49.246C82.1943 46.9322 83.824 42.2976 87.9508 38.1872C91.968 34.1859 98.2629 30.7917 107.39 30.7917C122.173 30.7917 133.776 43.4603 133.666 60.9505L133.666 60.9584V60.9663C133.666 63.5684 133.299 66.3329 132.508 69.3376C132.475 70.6862 133.163 71.8649 134.28 72.1847C135.426 72.5124 136.665 71.8357 137.341 70.6187C138.228 67.252 138.665 64.059 138.666 60.9736C138.786 41.2945 125.491 25.7917 107.39 25.7917C96.902 25.7917 89.3491 29.7373 84.4223 34.6446C79.605 39.4428 77.1943 45.2854 77.1943 49.246C77.1943 50.3151 77.1856 51.0869 77.1363 51.6853C77.1157 51.9347 77.0904 52.1219 77.0638 52.2618C76.9367 52.2762 76.7539 52.2884 76.4996 52.2884C76.3369 52.2884 76.2013 52.2851 76.0892 52.2801C76.0809 52.1852 76.073 52.0733 76.0664 51.9422C76.0382 51.3823 76.0388 50.6913 76.0395 49.7507L76.0398 49.246V49.2226L76.0394 49.1992C75.9658 45.2668 73.5394 39.439 68.6886 34.6389C63.7323 29.7345 56.1523 25.7917 45.6094 25.7917ZM131.042 74L131.154 73.6095C131.106 73.7392 131.057 73.8694 131.008 74H131.042ZM119.634 93.9605C119.757 93.7975 119.88 93.6342 120.002 93.4708C121.096 92.207 122.725 91.7929 123.772 92.5611C124.81 93.3231 124.911 94.9807 124.056 96.3959C117.633 105.012 109.941 112.879 102.569 120.162L102.526 120.205L102.481 120.246L86.2841 134.757C80.715 139.746 72.284 139.748 66.7135 134.76L50.6365 120.364L50.5907 120.323L50.547 120.28C43.3019 113.121 35.7965 105.452 29.4689 97.0935L29.4705 97.0923L29.4553 97.0755C29.2936 96.8618 29.1327 96.6477 28.9725 96.4331C28.0933 95.0099 28.1863 93.3298 29.2337 92.5611C30.2695 91.8008 31.8762 92.1986 32.9697 93.4318C33.1121 93.6226 33.2551 93.813 33.3989 94.0032C33.4288 94.0504 33.4576 94.098 33.4853 94.1458L33.4992 94.1356C39.5251 102.081 46.7694 109.517 54.0177 116.68L70.0488 131.035C73.7203 134.322 79.2771 134.321 82.9476 131.033L99.0987 116.562C106.274 109.472 113.489 102.066 119.503 94.1333L119.521 94.1458C119.557 94.0836 119.594 94.0218 119.634 93.9605Z" fill="#FF0030"/>
<path d="M6.5 82.9367H63.8904L71.9605 98.5L82.5526 70.5L89.614 82.9367H148" stroke="#FF0030" stroke-width="5" stroke-miterlimit="6.07152" stroke-linecap="round"/>
</g>
<defs>
<clipPath id="clip0_15_121">
<rect width="156" height="155" fill="white"/>
</clipPath>
</defs>
</svg>
